<?xml version="1.0" encoding="UTF-8"?>
<svg id="Capa_2" xmlns="http://www.w3.org/2000/svg" viewBox="0 0 1184.73 57.6">
  <defs>
    <style>
      .cls-1 {
        fill: #e2067c;
      }
    </style>
  </defs>
  <g id="Capa_1-2" data-name="Capa_1">
    <g>
      <path class="cls-1" d="M41.61,24.93c-.15-4.24-2.31-8.29-4.4-12.21-1.72-3.23-3.51-6.57-4.21-10.05l-.55-2.68-1.89,1.97c-3.39,3.53-7.14,7.84-9.22,13.06-2.49,6.25-.68,13.42,2.3,20.53-7.1.84-13.95,2.47-17.7,7.43h0c-2.77,3.67-4.2,8.1-5.23,11.96l-.71,2.64,2.57-.92c2.67-.95,5.71-1.12,8.65-1.28,3.62-.2,7.36-.4,10.42-2.1,2.62-1.46,4.58-3.81,5.99-7.19l.02-.04c.7-1.83.81-3.61.63-5.19,2.74-.37,6.78-1.56,9.61-5.21l.02-.03c2.62-3.59,3.83-7.09,3.7-10.71ZM24.99,45.02c-1.15,2.75-2.7,4.64-4.73,5.77-2.48,1.38-5.73,1.56-9.18,1.74-2.28.12-4.62.25-6.9.73.9-2.92,2.13-5.98,4.05-8.54,3.24-4.28,9.74-5.65,16.45-6.39.76,1.79,1.26,4.2.31,6.69ZM35.61,33.94c-2.16,2.78-5.25,3.79-7.74,4.11-3.59-7.7-6.4-15.62-3.87-21.96,1.56-3.9,4.21-7.32,6.87-10.27.95,2.89,2.4,5.61,3.8,8.25,2.02,3.8,3.94,7.38,4.07,10.96.11,2.95-.92,5.86-3.13,8.9Z"/>
      <path class="cls-1" d="M72.51,24.93c-.15-4.24-2.31-8.29-4.4-12.21-1.72-3.23-3.51-6.57-4.21-10.05l-.55-2.68-1.89,1.97c-3.39,3.53-7.14,7.84-9.22,13.06-2.49,6.25-.68,13.42,2.3,20.53-7.1.84-13.95,2.47-17.7,7.43h0c-2.77,3.67-4.2,8.1-5.23,11.96l-.71,2.64,2.57-.92c2.67-.95,5.71-1.12,8.65-1.28,3.62-.2,7.36-.4,10.42-2.1,2.62-1.46,4.58-3.81,5.99-7.19l.02-.04c.7-1.83.81-3.61.63-5.19,2.74-.37,6.78-1.56,9.61-5.21l.02-.03c2.62-3.59,3.83-7.09,3.7-10.71ZM55.88,45.02c-1.15,2.75-2.7,4.64-4.73,5.77-2.48,1.38-5.73,1.56-9.18,1.74-2.28.12-4.62.25-6.9.73.9-2.92,2.13-5.98,4.05-8.54,3.24-4.28,9.74-5.65,16.45-6.39.76,1.79,1.26,4.2.31,6.69ZM66.51,33.94c-2.16,2.78-5.25,3.79-7.74,4.11-3.59-7.7-6.4-15.62-3.87-21.96,1.56-3.9,4.21-7.32,6.87-10.27.95,2.89,2.4,5.61,3.8,8.25,2.02,3.8,3.94,7.38,4.07,10.96.11,2.95-.92,5.86-3.13,8.9Z"/>
      <path class="cls-1" d="M103.4,24.93c-.15-4.24-2.31-8.29-4.4-12.21-1.72-3.23-3.51-6.57-4.21-10.05l-.55-2.68-1.89,1.97c-3.39,3.53-7.14,7.84-9.22,13.06-2.49,6.25-.68,13.42,2.3,20.53-7.1.84-13.95,2.47-17.7,7.43h0c-2.77,3.67-4.2,8.1-5.23,11.96l-.71,2.64,2.57-.92c2.67-.95,5.71-1.12,8.65-1.28,3.62-.2,7.36-.4,10.42-2.1,2.62-1.46,4.58-3.81,5.99-7.19l.02-.04c.7-1.83.81-3.61.63-5.19,2.74-.37,6.78-1.56,9.61-5.21l.02-.03c2.62-3.59,3.83-7.09,3.7-10.71ZM86.77,45.02c-1.15,2.75-2.7,4.64-4.73,5.77-2.48,1.38-5.73,1.56-9.18,1.74-2.28.12-4.62.25-6.9.73.9-2.92,2.13-5.98,4.05-8.54,3.24-4.28,9.74-5.65,16.45-6.39.76,1.79,1.26,4.2.31,6.69ZM97.4,33.94c-2.16,2.78-5.25,3.79-7.74,4.11-3.59-7.7-6.4-15.62-3.87-21.96,1.56-3.9,4.21-7.32,6.87-10.27.95,2.89,2.4,5.61,3.8,8.25,2.02,3.8,3.94,7.38,4.07,10.96.11,2.95-.92,5.86-3.13,8.9Z"/>
      <path class="cls-1" d="M134.3,24.93c-.15-4.24-2.31-8.29-4.4-12.21-1.72-3.23-3.51-6.57-4.21-10.05l-.55-2.68-1.89,1.97c-3.39,3.53-7.14,7.84-9.22,13.06-2.49,6.25-.68,13.42,2.3,20.53-7.1.84-13.95,2.47-17.7,7.43h0c-2.77,3.67-4.2,8.1-5.23,11.96l-.71,2.64,2.57-.92c2.67-.95,5.71-1.12,8.65-1.28,3.62-.2,7.36-.4,10.42-2.1,2.62-1.46,4.58-3.81,5.99-7.19l.02-.04c.7-1.83.81-3.61.63-5.19,2.74-.37,6.78-1.56,9.61-5.21l.02-.03c2.62-3.59,3.83-7.09,3.7-10.71ZM117.67,45.02c-1.15,2.75-2.7,4.64-4.73,5.77-2.48,1.38-5.73,1.56-9.18,1.74-2.28.12-4.62.25-6.9.73.9-2.92,2.13-5.98,4.05-8.54,3.24-4.28,9.74-5.65,16.45-6.39.76,1.79,1.26,4.2.31,6.69ZM128.3,33.94c-2.16,2.78-5.25,3.79-7.74,4.11-3.59-7.7-6.4-15.62-3.87-21.96,1.56-3.9,4.21-7.32,6.87-10.27.95,2.89,2.4,5.61,3.8,8.25,2.02,3.8,3.94,7.38,4.07,10.96.11,2.95-.92,5.86-3.13,8.9Z"/>
      <path class="cls-1" d="M165.19,24.93c-.15-4.24-2.31-8.29-4.4-12.21-1.72-3.23-3.51-6.57-4.21-10.05l-.55-2.68-1.89,1.97c-3.39,3.53-7.14,7.84-9.22,13.06-2.49,6.25-.68,13.42,2.3,20.53-7.1.84-13.95,2.47-17.7,7.43h0c-2.77,3.67-4.2,8.1-5.23,11.96l-.71,2.64,2.57-.92c2.67-.95,5.71-1.12,8.65-1.28,3.62-.2,7.36-.4,10.42-2.1,2.62-1.46,4.58-3.81,5.99-7.19l.02-.04c.7-1.83.81-3.61.63-5.19,2.74-.37,6.78-1.56,9.61-5.21l.02-.03c2.62-3.59,3.83-7.09,3.7-10.71ZM148.56,45.02c-1.15,2.75-2.7,4.64-4.73,5.77-2.48,1.38-5.73,1.56-9.18,1.74-2.28.12-4.62.25-6.9.73.9-2.92,2.13-5.98,4.05-8.54,3.24-4.28,9.74-5.65,16.45-6.39.76,1.79,1.26,4.2.31,6.69ZM159.19,33.94c-2.16,2.78-5.25,3.79-7.74,4.11-3.59-7.7-6.4-15.62-3.87-21.96,1.56-3.9,4.21-7.32,6.87-10.27.95,2.89,2.4,5.61,3.8,8.25,2.02,3.8,3.94,7.38,4.07,10.96.11,2.95-.92,5.86-3.13,8.9Z"/>
      <path class="cls-1" d="M196.09,24.93c-.15-4.24-2.31-8.29-4.4-12.21-1.72-3.23-3.51-6.57-4.21-10.05l-.55-2.68-1.89,1.97c-3.39,3.53-7.14,7.84-9.22,13.06-2.49,6.25-.68,13.42,2.3,20.53-7.1.84-13.95,2.47-17.7,7.43h0c-2.77,3.67-4.2,8.1-5.23,11.96l-.71,2.64,2.57-.92c2.67-.95,5.71-1.12,8.65-1.28,3.62-.2,7.36-.4,10.42-2.1,2.62-1.46,4.58-3.81,5.99-7.19l.02-.04c.7-1.83.81-3.61.63-5.19,2.74-.37,6.78-1.56,9.61-5.21l.02-.03c2.62-3.59,3.83-7.09,3.7-10.71ZM179.46,45.02c-1.15,2.75-2.7,4.64-4.73,5.77-2.48,1.38-5.73,1.56-9.18,1.74-2.28.12-4.62.25-6.9.73.9-2.92,2.13-5.98,4.05-8.54,3.24-4.28,9.74-5.65,16.45-6.39.76,1.79,1.26,4.2.31,6.69ZM190.09,33.94c-2.16,2.78-5.25,3.79-7.74,4.11-3.59-7.7-6.4-15.62-3.87-21.96,1.56-3.9,4.21-7.32,6.87-10.27.95,2.89,2.4,5.61,3.8,8.25,2.02,3.8,3.94,7.38,4.07,10.96.11,2.95-.92,5.86-3.13,8.9Z"/>
      <path class="cls-1" d="M226.98,24.93c-.15-4.24-2.31-8.29-4.4-12.21-1.72-3.23-3.51-6.57-4.21-10.05l-.55-2.68-1.89,1.97c-3.39,3.53-7.14,7.84-9.22,13.06-2.49,6.25-.68,13.42,2.3,20.53-7.1.84-13.95,2.47-17.7,7.43h0c-2.77,3.67-4.2,8.1-5.23,11.96l-.71,2.64,2.57-.92c2.67-.95,5.71-1.12,8.65-1.28,3.62-.2,7.36-.4,10.42-2.1,2.62-1.46,4.58-3.81,5.99-7.19l.02-.04c.7-1.83.81-3.61.63-5.19,2.74-.37,6.78-1.56,9.61-5.21l.02-.03c2.62-3.59,3.83-7.09,3.7-10.71ZM210.35,45.02c-1.15,2.75-2.7,4.64-4.73,5.77-2.48,1.38-5.73,1.56-9.18,1.74-2.28.12-4.62.25-6.9.73.9-2.92,2.13-5.98,4.05-8.54,3.24-4.28,9.74-5.65,16.45-6.39.76,1.79,1.26,4.2.31,6.69ZM220.98,33.94c-2.16,2.78-5.25,3.79-7.74,4.11-3.59-7.7-6.4-15.62-3.87-21.96,1.56-3.9,4.21-7.32,6.87-10.27.95,2.89,2.4,5.61,3.8,8.25,2.02,3.8,3.94,7.38,4.07,10.96.11,2.95-.92,5.86-3.13,8.9Z"/>
      <path class="cls-1" d="M257.88,24.93c-.15-4.24-2.31-8.29-4.4-12.21-1.72-3.23-3.51-6.57-4.21-10.05l-.55-2.68-1.89,1.97c-3.39,3.53-7.14,7.84-9.22,13.06-2.49,6.25-.68,13.42,2.3,20.53-7.1.84-13.95,2.47-17.7,7.43h0c-2.77,3.67-4.2,8.1-5.23,11.96l-.71,2.64,2.57-.92c2.67-.95,5.71-1.12,8.65-1.28,3.62-.2,7.36-.4,10.42-2.1,2.62-1.46,4.58-3.81,5.99-7.19l.02-.04c.7-1.83.81-3.61.63-5.19,2.74-.37,6.78-1.56,9.61-5.21l.02-.03c2.62-3.59,3.83-7.09,3.7-10.71ZM241.25,45.02c-1.15,2.75-2.7,4.64-4.73,5.77-2.48,1.38-5.73,1.56-9.18,1.74-2.28.12-4.62.25-6.9.73.9-2.92,2.13-5.98,4.05-8.54,3.24-4.28,9.74-5.65,16.45-6.39.76,1.79,1.26,4.2.31,6.69ZM251.88,33.94c-2.16,2.78-5.25,3.79-7.74,4.11-3.59-7.7-6.4-15.62-3.87-21.96,1.56-3.9,4.21-7.32,6.87-10.27.95,2.89,2.4,5.61,3.8,8.25,2.02,3.8,3.94,7.38,4.07,10.96.11,2.95-.92,5.86-3.13,8.9Z"/>
      <path class="cls-1" d="M288.77,24.93c-.15-4.24-2.31-8.29-4.4-12.21-1.72-3.23-3.51-6.57-4.21-10.05l-.55-2.68-1.89,1.97c-3.39,3.53-7.14,7.84-9.22,13.06-2.49,6.25-.68,13.42,2.3,20.53-7.1.84-13.95,2.47-17.7,7.43h0c-2.77,3.67-4.2,8.1-5.23,11.96l-.71,2.64,2.57-.92c2.67-.95,5.71-1.12,8.65-1.28,3.62-.2,7.36-.4,10.42-2.1,2.62-1.46,4.58-3.81,5.99-7.19l.02-.04c.7-1.83.81-3.61.63-5.19,2.74-.37,6.78-1.56,9.61-5.21l.02-.03c2.62-3.59,3.83-7.09,3.7-10.71ZM272.14,45.02c-1.15,2.75-2.7,4.64-4.73,5.77-2.48,1.38-5.73,1.56-9.18,1.74-2.28.12-4.62.25-6.9.73.9-2.92,2.13-5.98,4.05-8.54,3.24-4.28,9.74-5.65,16.45-6.39.76,1.79,1.26,4.2.31,6.69ZM282.77,33.94c-2.16,2.78-5.25,3.79-7.74,4.11-3.59-7.7-6.4-15.62-3.87-21.96,1.56-3.9,4.21-7.32,6.87-10.27.95,2.89,2.4,5.61,3.8,8.25,2.02,3.8,3.94,7.38,4.07,10.96.11,2.95-.92,5.86-3.13,8.9Z"/>
      <path class="cls-1" d="M319.67,24.93c-.15-4.24-2.31-8.29-4.4-12.21-1.72-3.23-3.51-6.57-4.21-10.05l-.55-2.68-1.89,1.97c-3.39,3.53-7.14,7.84-9.22,13.06-2.49,6.25-.68,13.42,2.3,20.53-7.1.84-13.95,2.47-17.7,7.43h0c-2.77,3.67-4.2,8.1-5.23,11.96l-.71,2.64,2.57-.92c2.67-.95,5.71-1.12,8.65-1.28,3.62-.2,7.36-.4,10.42-2.1,2.62-1.46,4.58-3.81,5.99-7.19l.02-.04c.7-1.83.81-3.61.63-5.19,2.74-.37,6.78-1.56,9.61-5.21l.02-.03c2.62-3.59,3.83-7.09,3.7-10.71ZM303.04,45.02c-1.15,2.75-2.7,4.64-4.73,5.77-2.48,1.38-5.73,1.56-9.18,1.74-2.28.12-4.62.25-6.9.73.9-2.92,2.13-5.98,4.05-8.54,3.24-4.28,9.74-5.65,16.45-6.39.76,1.79,1.26,4.2.31,6.69ZM313.67,33.94c-2.16,2.78-5.25,3.79-7.74,4.11-3.59-7.7-6.4-15.62-3.87-21.96,1.56-3.9,4.21-7.32,6.87-10.27.95,2.89,2.4,5.61,3.8,8.25,2.02,3.8,3.94,7.38,4.07,10.96.11,2.95-.92,5.86-3.13,8.9Z"/>
      <path class="cls-1" d="M350.56,24.93c-.15-4.24-2.31-8.29-4.4-12.21-1.72-3.23-3.51-6.57-4.21-10.05l-.55-2.68-1.89,1.97c-3.39,3.53-7.14,7.84-9.22,13.06-2.49,6.25-.68,13.42,2.3,20.53-7.1.84-13.95,2.47-17.7,7.43h0c-2.77,3.67-4.2,8.1-5.23,11.96l-.71,2.64,2.57-.92c2.67-.95,5.71-1.12,8.65-1.28,3.62-.2,7.36-.4,10.42-2.1,2.62-1.46,4.58-3.81,5.99-7.19l.02-.04c.7-1.83.81-3.61.63-5.19,2.74-.37,6.78-1.56,9.61-5.21l.02-.03c2.62-3.59,3.83-7.09,3.7-10.71ZM333.93,45.02c-1.15,2.75-2.7,4.64-4.73,5.77-2.48,1.38-5.73,1.56-9.18,1.74-2.28.12-4.62.25-6.9.73.9-2.92,2.13-5.98,4.05-8.54,3.24-4.28,9.74-5.65,16.45-6.39.76,1.79,1.26,4.2.31,6.69ZM344.56,33.94c-2.16,2.78-5.25,3.79-7.74,4.11-3.59-7.7-6.4-15.62-3.87-21.96,1.56-3.9,4.21-7.32,6.87-10.27.95,2.89,2.4,5.61,3.8,8.25,2.02,3.8,3.94,7.38,4.07,10.96.11,2.95-.92,5.86-3.13,8.9Z"/>
      <path class="cls-1" d="M381.46,24.93c-.15-4.24-2.31-8.29-4.4-12.21-1.72-3.23-3.51-6.57-4.21-10.05l-.55-2.68-1.89,1.97c-3.39,3.53-7.14,7.84-9.22,13.06-2.49,6.25-.68,13.42,2.3,20.53-7.1.84-13.95,2.47-17.7,7.43h0c-2.77,3.67-4.2,8.1-5.23,11.96l-.71,2.64,2.57-.92c2.67-.95,5.71-1.12,8.65-1.28,3.62-.2,7.36-.4,10.42-2.1,2.62-1.46,4.58-3.81,5.99-7.19l.02-.04c.7-1.83.81-3.61.63-5.19,2.74-.37,6.78-1.56,9.61-5.21l.02-.03c2.62-3.59,3.83-7.09,3.7-10.71ZM364.83,45.02c-1.15,2.75-2.7,4.64-4.73,5.77-2.48,1.38-5.73,1.56-9.18,1.74-2.28.12-4.62.25-6.9.73.9-2.92,2.13-5.98,4.05-8.54,3.24-4.28,9.74-5.65,16.45-6.39.76,1.79,1.26,4.2.31,6.69ZM375.46,33.94c-2.16,2.78-5.25,3.79-7.74,4.11-3.59-7.7-6.4-15.62-3.87-21.96,1.56-3.9,4.21-7.32,6.87-10.27.95,2.89,2.4,5.61,3.8,8.25,2.02,3.8,3.94,7.38,4.07,10.96.11,2.95-.92,5.86-3.13,8.9Z"/>
      <path class="cls-1" d="M412.35,24.93c-.15-4.24-2.31-8.29-4.4-12.21-1.72-3.23-3.51-6.57-4.21-10.05l-.55-2.68-1.89,1.97c-3.39,3.53-7.14,7.84-9.22,13.06-2.49,6.25-.68,13.42,2.3,20.53-7.1.84-13.95,2.47-17.7,7.43h0c-2.77,3.67-4.2,8.1-5.23,11.96l-.71,2.64,2.57-.92c2.67-.95,5.71-1.12,8.65-1.28,3.62-.2,7.36-.4,10.42-2.1,2.62-1.46,4.58-3.81,5.99-7.19l.02-.04c.7-1.83.81-3.61.63-5.19,2.74-.37,6.78-1.56,9.61-5.21l.02-.03c2.62-3.59,3.83-7.09,3.7-10.71ZM395.72,45.02c-1.15,2.75-2.7,4.64-4.73,5.77-2.48,1.38-5.73,1.56-9.18,1.74-2.28.12-4.62.25-6.9.73.9-2.92,2.13-5.98,4.05-8.54,3.24-4.28,9.74-5.65,16.45-6.39.76,1.79,1.26,4.2.31,6.69ZM406.35,33.94c-2.16,2.78-5.25,3.79-7.74,4.11-3.59-7.7-6.4-15.62-3.87-21.96,1.56-3.9,4.21-7.32,6.87-10.27.95,2.89,2.4,5.61,3.8,8.25,2.02,3.8,3.94,7.38,4.07,10.96.11,2.95-.92,5.86-3.13,8.9Z"/>
      <path class="cls-1" d="M443.25,24.93c-.15-4.24-2.31-8.29-4.4-12.21-1.72-3.23-3.51-6.57-4.21-10.05l-.55-2.68-1.89,1.97c-3.39,3.53-7.14,7.84-9.22,13.06-2.49,6.25-.68,13.42,2.3,20.53-7.1.84-13.95,2.47-17.7,7.43h0c-2.77,3.67-4.2,8.1-5.23,11.96l-.71,2.64,2.57-.92c2.67-.95,5.71-1.12,8.65-1.28,3.62-.2,7.36-.4,10.42-2.1,2.62-1.46,4.58-3.81,5.99-7.19l.02-.04c.7-1.83.81-3.61.63-5.19,2.74-.37,6.78-1.56,9.61-5.21l.02-.03c2.62-3.59,3.83-7.09,3.7-10.71ZM426.62,45.02c-1.15,2.75-2.7,4.64-4.73,5.77-2.48,1.38-5.73,1.56-9.18,1.74-2.28.12-4.62.25-6.9.73.9-2.92,2.13-5.98,4.05-8.54,3.24-4.28,9.74-5.65,16.45-6.39.76,1.79,1.26,4.2.31,6.69ZM437.25,33.94c-2.16,2.78-5.25,3.79-7.74,4.11-3.59-7.7-6.4-15.62-3.87-21.96,1.56-3.9,4.21-7.32,6.87-10.27.95,2.89,2.4,5.61,3.8,8.25,2.02,3.8,3.94,7.38,4.07,10.96.11,2.95-.92,5.86-3.13,8.9Z"/>
      <path class="cls-1" d="M474.14,24.93c-.15-4.24-2.31-8.29-4.4-12.21-1.72-3.23-3.51-6.57-4.21-10.05l-.55-2.68-1.89,1.97c-3.39,3.53-7.14,7.84-9.22,13.06-2.49,6.25-.68,13.42,2.3,20.53-7.1.84-13.95,2.47-17.7,7.43h0c-2.77,3.67-4.2,8.1-5.23,11.96l-.71,2.64,2.57-.92c2.67-.95,5.71-1.12,8.65-1.28,3.62-.2,7.36-.4,10.42-2.1,2.62-1.46,4.58-3.81,5.99-7.19l.02-.04c.7-1.83.81-3.61.63-5.19,2.74-.37,6.78-1.56,9.61-5.21l.02-.03c2.62-3.59,3.83-7.09,3.7-10.71ZM457.51,45.02c-1.15,2.75-2.7,4.64-4.73,5.77-2.48,1.38-5.73,1.56-9.18,1.74-2.28.12-4.62.25-6.9.73.9-2.92,2.13-5.98,4.05-8.54,3.24-4.28,9.74-5.65,16.45-6.39.76,1.79,1.26,4.2.31,6.69ZM468.14,33.94c-2.16,2.78-5.25,3.79-7.74,4.11-3.59-7.7-6.4-15.62-3.87-21.96,1.56-3.9,4.21-7.32,6.87-10.27.95,2.89,2.4,5.61,3.8,8.25,2.02,3.8,3.94,7.38,4.07,10.96.11,2.95-.92,5.86-3.13,8.9Z"/>
      <path class="cls-1" d="M505.03,24.93c-.15-4.24-2.31-8.29-4.4-12.21-1.72-3.23-3.51-6.57-4.21-10.05l-.55-2.68-1.89,1.97c-3.39,3.53-7.14,7.84-9.22,13.06-2.49,6.25-.68,13.42,2.3,20.53-7.1.84-13.95,2.47-17.7,7.43h0c-2.77,3.67-4.2,8.1-5.23,11.96l-.71,2.64,2.57-.92c2.67-.95,5.71-1.12,8.65-1.28,3.62-.2,7.36-.4,10.42-2.1,2.62-1.46,4.58-3.81,5.99-7.19l.02-.04c.7-1.83.81-3.61.63-5.19,2.74-.37,6.78-1.56,9.61-5.21l.02-.03c2.62-3.59,3.83-7.09,3.7-10.71ZM488.41,45.02c-1.15,2.75-2.7,4.64-4.73,5.77-2.48,1.38-5.73,1.56-9.18,1.74-2.28.12-4.62.25-6.9.73.9-2.92,2.13-5.98,4.05-8.54,3.24-4.28,9.74-5.65,16.45-6.39.76,1.79,1.26,4.2.31,6.69ZM499.04,33.94c-2.16,2.78-5.25,3.79-7.74,4.11-3.59-7.7-6.4-15.62-3.87-21.96,1.56-3.9,4.21-7.32,6.87-10.27.95,2.89,2.4,5.61,3.8,8.25,2.02,3.8,3.94,7.38,4.07,10.96.11,2.95-.92,5.86-3.13,8.9Z"/>
      <path class="cls-1" d="M535.93,24.93c-.15-4.24-2.31-8.29-4.4-12.21-1.72-3.23-3.51-6.57-4.21-10.05l-.55-2.68-1.89,1.97c-3.39,3.53-7.14,7.84-9.22,13.06-2.49,6.25-.68,13.42,2.3,20.53-7.1.84-13.95,2.47-17.7,7.43h0c-2.77,3.67-4.2,8.1-5.23,11.96l-.71,2.64,2.57-.92c2.67-.95,5.71-1.12,8.65-1.28,3.62-.2,7.36-.4,10.42-2.1,2.62-1.46,4.58-3.81,5.99-7.19l.02-.04c.7-1.83.81-3.61.63-5.19,2.74-.37,6.78-1.56,9.61-5.21l.02-.03c2.62-3.59,3.83-7.09,3.7-10.71ZM519.3,45.02c-1.15,2.75-2.7,4.64-4.73,5.77-2.48,1.38-5.73,1.56-9.18,1.74-2.28.12-4.62.25-6.9.73.9-2.92,2.13-5.98,4.05-8.54,3.24-4.28,9.74-5.65,16.45-6.39.76,1.79,1.26,4.2.31,6.69ZM529.93,33.94c-2.16,2.78-5.25,3.79-7.74,4.11-3.59-7.7-6.4-15.62-3.87-21.96,1.56-3.9,4.21-7.32,6.87-10.27.95,2.89,2.4,5.61,3.8,8.25,2.02,3.8,3.94,7.38,4.07,10.96.11,2.95-.92,5.86-3.13,8.9Z"/>
      <path class="cls-1" d="M566.82,24.93c-.15-4.24-2.31-8.29-4.4-12.21-1.72-3.23-3.51-6.57-4.21-10.05l-.55-2.68-1.89,1.97c-3.39,3.53-7.14,7.84-9.22,13.06-2.49,6.25-.68,13.42,2.3,20.53-7.1.84-13.95,2.47-17.7,7.43h0c-2.77,3.67-4.2,8.1-5.23,11.96l-.71,2.64,2.57-.92c2.67-.95,5.71-1.12,8.65-1.28,3.62-.2,7.36-.4,10.42-2.1,2.62-1.46,4.58-3.81,5.99-7.19l.02-.04c.7-1.83.81-3.61.63-5.19,2.74-.37,6.78-1.56,9.61-5.21l.02-.03c2.62-3.59,3.83-7.09,3.7-10.71ZM550.2,45.02c-1.15,2.75-2.7,4.64-4.73,5.77-2.48,1.38-5.73,1.56-9.18,1.74-2.28.12-4.62.25-6.9.73.9-2.92,2.13-5.98,4.05-8.54,3.24-4.28,9.74-5.65,16.45-6.39.76,1.79,1.26,4.2.31,6.69ZM560.83,33.94c-2.16,2.78-5.25,3.79-7.74,4.11-3.59-7.7-6.4-15.62-3.87-21.96,1.56-3.9,4.21-7.32,6.87-10.27.95,2.89,2.4,5.61,3.8,8.25,2.02,3.8,3.94,7.38,4.07,10.96.11,2.95-.92,5.86-3.13,8.9Z"/>
      <path class="cls-1" d="M597.72,24.93c-.15-4.24-2.31-8.29-4.4-12.21-1.72-3.23-3.51-6.57-4.21-10.05l-.55-2.68-1.89,1.97c-3.39,3.53-7.14,7.84-9.22,13.06-2.49,6.25-.68,13.42,2.3,20.53-7.1.84-13.95,2.47-17.7,7.43h0c-2.77,3.67-4.2,8.1-5.23,11.96l-.71,2.64,2.57-.92c2.67-.95,5.71-1.12,8.65-1.28,3.62-.2,7.36-.4,10.42-2.1,2.62-1.46,4.58-3.81,5.99-7.19l.02-.04c.7-1.83.81-3.61.63-5.19,2.74-.37,6.78-1.56,9.61-5.21l.02-.03c2.62-3.59,3.83-7.09,3.7-10.71ZM581.09,45.02c-1.15,2.75-2.7,4.64-4.73,5.77-2.48,1.38-5.73,1.56-9.18,1.74-2.28.12-4.62.25-6.9.73.9-2.92,2.13-5.98,4.05-8.54,3.24-4.28,9.74-5.65,16.45-6.39.76,1.79,1.26,4.2.31,6.69ZM591.72,33.94c-2.16,2.78-5.25,3.79-7.74,4.11-3.59-7.7-6.4-15.62-3.87-21.96,1.56-3.9,4.21-7.32,6.87-10.27.95,2.89,2.4,5.61,3.8,8.25,2.02,3.8,3.94,7.38,4.07,10.96.11,2.95-.92,5.86-3.13,8.9Z"/>
      <path class="cls-1" d="M628.61,24.93c-.15-4.24-2.31-8.29-4.4-12.21-1.72-3.23-3.51-6.57-4.21-10.05l-.55-2.68-1.89,1.97c-3.39,3.53-7.14,7.84-9.22,13.06-2.49,6.25-.68,13.42,2.3,20.53-7.1.84-13.95,2.47-17.7,7.43h0c-2.77,3.67-4.2,8.1-5.23,11.96l-.71,2.64,2.57-.92c2.67-.95,5.71-1.12,8.65-1.28,3.62-.2,7.36-.4,10.42-2.1,2.62-1.46,4.58-3.81,5.99-7.19l.02-.04c.7-1.83.81-3.61.63-5.19,2.74-.37,6.78-1.56,9.61-5.21l.02-.03c2.62-3.59,3.83-7.09,3.7-10.71ZM611.99,45.02c-1.15,2.75-2.7,4.64-4.73,5.77-2.48,1.38-5.73,1.56-9.18,1.74-2.28.12-4.62.25-6.9.73.9-2.92,2.13-5.98,4.05-8.54,3.24-4.28,9.74-5.65,16.45-6.39.76,1.79,1.26,4.2.31,6.69ZM622.62,33.94c-2.16,2.78-5.25,3.79-7.74,4.11-3.59-7.7-6.4-15.62-3.87-21.96,1.56-3.9,4.21-7.32,6.87-10.27.95,2.89,2.4,5.61,3.8,8.25,2.02,3.8,3.94,7.38,4.07,10.96.11,2.95-.92,5.86-3.13,8.9Z"/>
      <path class="cls-1" d="M659.51,24.93c-.15-4.24-2.31-8.29-4.4-12.21-1.72-3.23-3.51-6.57-4.21-10.05l-.55-2.68-1.89,1.97c-3.39,3.53-7.14,7.84-9.22,13.06-2.49,6.25-.68,13.42,2.3,20.53-7.1.84-13.95,2.47-17.7,7.43h0c-2.77,3.67-4.2,8.1-5.23,11.96l-.71,2.64,2.57-.92c2.67-.95,5.71-1.12,8.65-1.28,3.62-.2,7.36-.4,10.42-2.1,2.62-1.46,4.58-3.81,5.99-7.19l.02-.04c.7-1.83.81-3.61.63-5.19,2.74-.37,6.78-1.56,9.61-5.21l.02-.03c2.62-3.59,3.83-7.09,3.7-10.71ZM642.88,45.02c-1.15,2.75-2.7,4.64-4.73,5.77-2.48,1.38-5.73,1.56-9.18,1.74-2.28.12-4.62.25-6.9.73.9-2.92,2.13-5.98,4.05-8.54,3.24-4.28,9.74-5.65,16.45-6.39.76,1.79,1.26,4.2.31,6.69ZM653.51,33.94c-2.16,2.78-5.25,3.79-7.74,4.11-3.59-7.7-6.4-15.62-3.87-21.96,1.56-3.9,4.21-7.32,6.87-10.27.95,2.89,2.4,5.61,3.8,8.25,2.02,3.8,3.94,7.38,4.07,10.96.11,2.95-.92,5.86-3.13,8.9Z"/>
      <path class="cls-1" d="M690.4,24.93c-.15-4.24-2.31-8.29-4.4-12.21-1.72-3.23-3.51-6.57-4.21-10.05l-.55-2.68-1.89,1.97c-3.39,3.53-7.14,7.84-9.22,13.06-2.49,6.25-.68,13.42,2.3,20.53-7.1.84-13.95,2.47-17.7,7.43h0c-2.77,3.67-4.2,8.1-5.23,11.96l-.71,2.64,2.57-.92c2.67-.95,5.71-1.12,8.65-1.28,3.62-.2,7.36-.4,10.42-2.1,2.62-1.46,4.58-3.81,5.99-7.19l.02-.04c.7-1.83.81-3.61.63-5.19,2.74-.37,6.78-1.56,9.61-5.21l.02-.03c2.62-3.59,3.83-7.09,3.7-10.71ZM673.78,45.02c-1.15,2.75-2.7,4.64-4.73,5.77-2.48,1.38-5.73,1.56-9.18,1.74-2.28.12-4.62.25-6.9.73.9-2.92,2.13-5.98,4.05-8.54,3.24-4.28,9.74-5.65,16.45-6.39.76,1.79,1.26,4.2.31,6.69ZM684.41,33.94c-2.16,2.78-5.25,3.79-7.74,4.11-3.59-7.7-6.4-15.62-3.87-21.96,1.56-3.9,4.21-7.32,6.87-10.27.95,2.89,2.4,5.61,3.8,8.25,2.02,3.8,3.94,7.38,4.07,10.96.11,2.95-.92,5.86-3.13,8.9Z"/>
      <path class="cls-1" d="M721.3,24.93c-.15-4.24-2.31-8.29-4.4-12.21-1.72-3.23-3.51-6.57-4.21-10.05l-.55-2.68-1.89,1.97c-3.39,3.53-7.14,7.84-9.22,13.06-2.49,6.25-.68,13.42,2.3,20.53-7.1.84-13.95,2.47-17.7,7.43h0c-2.77,3.67-4.2,8.1-5.23,11.96l-.71,2.64,2.57-.92c2.67-.95,5.71-1.12,8.65-1.28,3.62-.2,7.36-.4,10.42-2.1,2.62-1.46,4.58-3.81,5.99-7.19l.02-.04c.7-1.83.81-3.61.63-5.19,2.74-.37,6.78-1.56,9.61-5.21l.02-.03c2.62-3.59,3.83-7.09,3.7-10.71ZM704.67,45.02c-1.15,2.75-2.7,4.64-4.73,5.77-2.48,1.38-5.73,1.56-9.18,1.74-2.28.12-4.62.25-6.9.73.9-2.92,2.13-5.98,4.05-8.54,3.24-4.28,9.74-5.65,16.45-6.39.76,1.79,1.26,4.2.31,6.69ZM715.3,33.94c-2.16,2.78-5.25,3.79-7.74,4.11-3.59-7.7-6.4-15.62-3.87-21.96,1.56-3.9,4.21-7.32,6.87-10.27.95,2.89,2.4,5.61,3.8,8.25,2.02,3.8,3.94,7.38,4.07,10.96.11,2.95-.92,5.86-3.13,8.9Z"/>
      <path class="cls-1" d="M752.19,24.93c-.15-4.24-2.31-8.29-4.4-12.21-1.72-3.23-3.51-6.57-4.21-10.05l-.55-2.68-1.89,1.97c-3.39,3.53-7.14,7.84-9.22,13.06-2.49,6.25-.68,13.42,2.3,20.53-7.1.84-13.95,2.47-17.7,7.43h0c-2.77,3.67-4.2,8.1-5.23,11.96l-.71,2.64,2.57-.92c2.67-.95,5.71-1.12,8.65-1.28,3.62-.2,7.36-.4,10.42-2.1,2.62-1.46,4.58-3.81,5.99-7.19l.02-.04c.7-1.83.81-3.61.63-5.19,2.74-.37,6.78-1.56,9.61-5.21l.02-.03c2.62-3.59,3.83-7.09,3.7-10.71ZM735.56,45.02c-1.15,2.75-2.7,4.64-4.73,5.77-2.48,1.38-5.73,1.56-9.18,1.74-2.28.12-4.62.25-6.9.73.9-2.92,2.13-5.98,4.05-8.54,3.24-4.28,9.74-5.65,16.45-6.39.76,1.79,1.26,4.2.31,6.69ZM746.19,33.94c-2.16,2.78-5.25,3.79-7.74,4.11-3.59-7.7-6.4-15.62-3.87-21.96,1.56-3.9,4.21-7.32,6.87-10.27.95,2.89,2.4,5.61,3.8,8.25,2.02,3.8,3.94,7.38,4.07,10.96.11,2.95-.92,5.86-3.13,8.9Z"/>
      <path class="cls-1" d="M783.09,24.93c-.15-4.24-2.31-8.29-4.4-12.21-1.72-3.23-3.51-6.57-4.21-10.05l-.55-2.68-1.89,1.97c-3.39,3.53-7.14,7.84-9.22,13.06-2.49,6.25-.68,13.42,2.3,20.53-7.1.84-13.95,2.47-17.7,7.43h0c-2.77,3.67-4.2,8.1-5.23,11.96l-.71,2.64,2.57-.92c2.67-.95,5.71-1.12,8.65-1.28,3.62-.2,7.36-.4,10.42-2.1,2.62-1.46,4.58-3.81,5.99-7.19l.02-.04c.7-1.83.81-3.61.63-5.19,2.74-.37,6.78-1.56,9.61-5.21l.02-.03c2.62-3.59,3.83-7.09,3.7-10.71ZM766.46,45.02c-1.15,2.75-2.7,4.64-4.73,5.77-2.48,1.38-5.73,1.56-9.18,1.74-2.28.12-4.62.25-6.9.73.9-2.92,2.13-5.98,4.05-8.54,3.24-4.28,9.74-5.65,16.45-6.39.76,1.79,1.26,4.2.31,6.69ZM777.09,33.94c-2.16,2.78-5.25,3.79-7.74,4.11-3.59-7.7-6.4-15.62-3.87-21.96,1.56-3.9,4.21-7.32,6.87-10.27.95,2.89,2.4,5.61,3.8,8.25,2.02,3.8,3.94,7.38,4.07,10.96.11,2.95-.92,5.86-3.13,8.9Z"/>
      <path class="cls-1" d="M813.98,24.93c-.15-4.24-2.31-8.29-4.4-12.21-1.72-3.23-3.51-6.57-4.21-10.05l-.55-2.68-1.89,1.97c-3.39,3.53-7.14,7.84-9.22,13.06-2.49,6.25-.68,13.42,2.3,20.53-7.1.84-13.95,2.47-17.7,7.43h0c-2.77,3.67-4.2,8.1-5.23,11.96l-.71,2.64,2.57-.92c2.67-.95,5.71-1.12,8.65-1.28,3.62-.2,7.36-.4,10.42-2.1,2.62-1.46,4.58-3.81,5.99-7.19l.02-.04c.7-1.83.81-3.61.63-5.19,2.74-.37,6.78-1.56,9.61-5.21l.02-.03c2.62-3.59,3.83-7.09,3.7-10.71ZM797.35,45.02c-1.15,2.75-2.7,4.64-4.73,5.77-2.48,1.38-5.73,1.56-9.18,1.74-2.28.12-4.62.25-6.9.73.9-2.92,2.13-5.98,4.05-8.54,3.24-4.28,9.74-5.65,16.45-6.39.76,1.79,1.26,4.2.31,6.69ZM807.98,33.94c-2.16,2.78-5.25,3.79-7.74,4.11-3.59-7.7-6.4-15.62-3.87-21.96,1.56-3.9,4.21-7.32,6.87-10.27.95,2.89,2.4,5.61,3.8,8.25,2.02,3.8,3.94,7.38,4.07,10.96.11,2.95-.92,5.86-3.13,8.9Z"/>
      <path class="cls-1" d="M844.88,24.93c-.15-4.24-2.31-8.29-4.4-12.21-1.72-3.23-3.51-6.57-4.21-10.05l-.55-2.68-1.89,1.97c-3.39,3.53-7.14,7.84-9.22,13.06-2.49,6.25-.68,13.42,2.3,20.53-7.1.84-13.95,2.47-17.7,7.43h0c-2.77,3.67-4.2,8.1-5.23,11.96l-.71,2.64,2.57-.92c2.67-.95,5.71-1.12,8.65-1.28,3.62-.2,7.36-.4,10.42-2.1,2.62-1.46,4.58-3.81,5.99-7.19l.02-.04c.7-1.83.81-3.61.63-5.19,2.74-.37,6.78-1.56,9.61-5.21l.02-.03c2.62-3.59,3.83-7.09,3.7-10.71ZM828.25,45.02c-1.15,2.75-2.7,4.64-4.73,5.77-2.48,1.38-5.73,1.56-9.18,1.74-2.28.12-4.62.25-6.9.73.9-2.92,2.13-5.98,4.05-8.54,3.24-4.28,9.74-5.65,16.45-6.39.76,1.79,1.26,4.2.31,6.69ZM838.88,33.94c-2.16,2.78-5.25,3.79-7.74,4.11-3.59-7.7-6.4-15.62-3.87-21.96,1.56-3.9,4.21-7.32,6.87-10.27.95,2.89,2.4,5.61,3.8,8.25,2.02,3.8,3.94,7.38,4.07,10.96.11,2.95-.92,5.86-3.13,8.9Z"/>
      <path class="cls-1" d="M875.77,24.93c-.15-4.24-2.31-8.29-4.4-12.21-1.72-3.23-3.51-6.57-4.21-10.05l-.55-2.68-1.89,1.97c-3.39,3.53-7.14,7.84-9.22,13.06-2.49,6.25-.68,13.42,2.3,20.53-7.1.84-13.95,2.47-17.7,7.43h0c-2.77,3.67-4.2,8.1-5.23,11.96l-.71,2.64,2.57-.92c2.67-.95,5.71-1.12,8.65-1.28,3.62-.2,7.36-.4,10.42-2.1,2.62-1.46,4.58-3.81,5.99-7.19l.02-.04c.7-1.83.81-3.61.63-5.19,2.74-.37,6.78-1.56,9.61-5.21l.02-.03c2.62-3.59,3.83-7.09,3.7-10.71ZM859.14,45.02c-1.15,2.75-2.7,4.64-4.73,5.77-2.48,1.38-5.73,1.56-9.18,1.74-2.28.12-4.62.25-6.9.73.9-2.92,2.13-5.98,4.05-8.54,3.24-4.28,9.74-5.65,16.45-6.39.76,1.79,1.26,4.2.31,6.69ZM869.77,33.94c-2.16,2.78-5.25,3.79-7.74,4.11-3.59-7.7-6.4-15.62-3.87-21.96,1.56-3.9,4.21-7.32,6.87-10.27.95,2.89,2.4,5.61,3.8,8.25,2.02,3.8,3.94,7.38,4.07,10.96.11,2.95-.92,5.86-3.13,8.9Z"/>
      <path class="cls-1" d="M906.67,24.93c-.15-4.24-2.31-8.29-4.4-12.21-1.72-3.23-3.51-6.57-4.21-10.05l-.55-2.68-1.89,1.97c-3.39,3.53-7.14,7.84-9.22,13.06-2.49,6.25-.68,13.42,2.3,20.53-7.1.84-13.95,2.47-17.7,7.43h0c-2.77,3.67-4.2,8.1-5.23,11.96l-.71,2.64,2.57-.92c2.67-.95,5.71-1.12,8.65-1.28,3.62-.2,7.36-.4,10.42-2.1,2.62-1.46,4.58-3.81,5.99-7.19l.02-.04c.7-1.83.81-3.61.63-5.19,2.74-.37,6.78-1.56,9.61-5.21l.02-.03c2.62-3.59,3.83-7.09,3.7-10.71ZM890.04,45.02c-1.15,2.75-2.7,4.64-4.73,5.77-2.48,1.38-5.73,1.56-9.18,1.74-2.28.12-4.62.25-6.9.73.9-2.92,2.13-5.98,4.05-8.54,3.24-4.28,9.74-5.65,16.45-6.39.76,1.79,1.26,4.2.31,6.69ZM900.67,33.94c-2.16,2.78-5.25,3.79-7.74,4.11-3.59-7.7-6.4-15.62-3.87-21.96,1.56-3.9,4.21-7.32,6.87-10.27.95,2.89,2.4,5.61,3.8,8.25,2.02,3.8,3.94,7.38,4.07,10.96.11,2.95-.92,5.86-3.13,8.9Z"/>
      <path class="cls-1" d="M937.56,24.93c-.15-4.24-2.31-8.29-4.4-12.21-1.72-3.23-3.51-6.57-4.21-10.05l-.55-2.68-1.89,1.97c-3.39,3.53-7.14,7.84-9.22,13.06-2.49,6.25-.68,13.42,2.3,20.53-7.1.84-13.95,2.47-17.7,7.43h0c-2.77,3.67-4.2,8.1-5.23,11.96l-.71,2.64,2.57-.92c2.67-.95,5.71-1.12,8.65-1.28,3.62-.2,7.36-.4,10.42-2.1,2.62-1.46,4.58-3.81,5.99-7.19l.02-.04c.7-1.83.81-3.61.63-5.19,2.74-.37,6.78-1.56,9.61-5.21l.02-.03c2.62-3.59,3.83-7.09,3.7-10.71ZM920.93,45.02c-1.15,2.75-2.7,4.64-4.73,5.77-2.48,1.38-5.73,1.56-9.18,1.74-2.28.12-4.62.25-6.9.73.9-2.92,2.13-5.98,4.05-8.54,3.24-4.28,9.74-5.65,16.45-6.39.76,1.79,1.26,4.2.31,6.69ZM931.56,33.94c-2.16,2.78-5.25,3.79-7.74,4.11-3.59-7.7-6.4-15.62-3.87-21.96,1.56-3.9,4.21-7.32,6.87-10.27.95,2.89,2.4,5.61,3.8,8.25,2.02,3.8,3.94,7.38,4.07,10.96.11,2.95-.92,5.86-3.13,8.9Z"/>
      <path class="cls-1" d="M968.46,24.93c-.15-4.24-2.31-8.29-4.4-12.21-1.72-3.23-3.51-6.57-4.21-10.05l-.55-2.68-1.89,1.97c-3.39,3.53-7.14,7.84-9.22,13.06-2.49,6.25-.68,13.42,2.3,20.53-7.1.84-13.95,2.47-17.7,7.43h0c-2.77,3.67-4.2,8.1-5.23,11.96l-.71,2.64,2.57-.92c2.67-.95,5.71-1.12,8.65-1.28,3.62-.2,7.36-.4,10.42-2.1,2.62-1.46,4.58-3.81,5.99-7.19l.02-.04c.7-1.83.81-3.61.63-5.19,2.74-.37,6.78-1.56,9.61-5.21l.02-.03c2.62-3.59,3.83-7.09,3.7-10.71ZM951.83,45.02c-1.15,2.75-2.7,4.64-4.73,5.77-2.48,1.38-5.73,1.56-9.18,1.74-2.28.12-4.62.25-6.9.73.9-2.92,2.13-5.98,4.05-8.54,3.24-4.28,9.74-5.65,16.45-6.39.76,1.79,1.26,4.2.31,6.69ZM962.46,33.94c-2.16,2.78-5.25,3.79-7.74,4.11-3.59-7.7-6.4-15.62-3.87-21.96,1.56-3.9,4.21-7.32,6.87-10.27.95,2.89,2.4,5.61,3.8,8.25,2.02,3.8,3.94,7.38,4.07,10.96.11,2.95-.92,5.86-3.13,8.9Z"/>
      <path class="cls-1" d="M999.35,24.93c-.15-4.24-2.31-8.29-4.4-12.21-1.72-3.23-3.51-6.57-4.21-10.05l-.55-2.68-1.89,1.97c-3.39,3.53-7.14,7.84-9.22,13.06-2.49,6.25-.68,13.42,2.3,20.53-7.1.84-13.95,2.47-17.7,7.43h0c-2.77,3.67-4.2,8.1-5.23,11.96l-.71,2.64,2.57-.92c2.67-.95,5.71-1.12,8.65-1.28,3.62-.2,7.36-.4,10.42-2.1,2.62-1.46,4.58-3.81,5.99-7.19l.02-.04c.7-1.83.81-3.61.63-5.19,2.74-.37,6.78-1.56,9.61-5.21l.02-.03c2.62-3.59,3.83-7.09,3.7-10.71ZM982.72,45.02c-1.15,2.75-2.7,4.64-4.73,5.77-2.48,1.38-5.73,1.56-9.18,1.74-2.28.12-4.62.25-6.9.73.9-2.92,2.13-5.98,4.05-8.54,3.24-4.28,9.74-5.65,16.45-6.39.76,1.79,1.26,4.2.31,6.69ZM993.35,33.94c-2.16,2.78-5.25,3.79-7.74,4.11-3.59-7.7-6.4-15.62-3.87-21.96,1.56-3.9,4.21-7.32,6.87-10.27.95,2.89,2.4,5.61,3.8,8.25,2.02,3.8,3.94,7.38,4.07,10.96.11,2.95-.92,5.86-3.13,8.9Z"/>
      <path class="cls-1" d="M1030.25,24.93c-.15-4.24-2.31-8.29-4.4-12.21-1.72-3.23-3.51-6.57-4.21-10.05l-.55-2.68-1.89,1.97c-3.39,3.53-7.14,7.84-9.22,13.06-2.49,6.25-.68,13.42,2.3,20.53-7.1.84-13.95,2.47-17.7,7.43h0c-2.77,3.67-4.2,8.1-5.23,11.96l-.71,2.64,2.57-.92c2.67-.95,5.71-1.12,8.65-1.28,3.62-.2,7.36-.4,10.42-2.1,2.62-1.46,4.58-3.81,5.99-7.19l.02-.04c.7-1.83.81-3.61.63-5.19,2.74-.37,6.78-1.56,9.61-5.21l.02-.03c2.62-3.59,3.83-7.09,3.7-10.71ZM1013.62,45.02c-1.15,2.75-2.7,4.64-4.73,5.77-2.48,1.38-5.73,1.56-9.18,1.74-2.28.12-4.62.25-6.9.73.9-2.92,2.13-5.98,4.05-8.54,3.24-4.28,9.74-5.65,16.45-6.39.76,1.79,1.26,4.2.31,6.69ZM1024.25,33.94c-2.16,2.78-5.25,3.79-7.74,4.11-3.59-7.7-6.4-15.62-3.87-21.96,1.56-3.9,4.21-7.32,6.87-10.27.95,2.89,2.4,5.61,3.8,8.25,2.02,3.8,3.94,7.38,4.07,10.96.11,2.95-.92,5.86-3.13,8.9Z"/>
      <path class="cls-1" d="M1061.14,24.93c-.15-4.24-2.31-8.29-4.4-12.21-1.72-3.23-3.51-6.57-4.21-10.05l-.55-2.68-1.89,1.97c-3.39,3.53-7.14,7.84-9.22,13.06-2.49,6.25-.68,13.42,2.3,20.53-7.1.84-13.95,2.47-17.7,7.43h0c-2.77,3.67-4.2,8.1-5.23,11.96l-.71,2.64,2.57-.92c2.67-.95,5.71-1.12,8.65-1.28,3.62-.2,7.36-.4,10.42-2.1,2.62-1.46,4.58-3.81,5.99-7.19l.02-.04c.7-1.83.81-3.61.63-5.19,2.74-.37,6.78-1.56,9.61-5.21l.02-.03c2.62-3.59,3.83-7.09,3.7-10.71ZM1044.51,45.02c-1.15,2.75-2.7,4.64-4.73,5.77-2.48,1.38-5.73,1.56-9.18,1.74-2.28.12-4.62.25-6.9.73.9-2.92,2.13-5.98,4.05-8.54,3.24-4.28,9.74-5.65,16.45-6.39.76,1.79,1.26,4.2.31,6.69ZM1055.14,33.94c-2.16,2.78-5.25,3.79-7.74,4.11-3.59-7.7-6.4-15.62-3.87-21.96,1.56-3.9,4.21-7.32,6.87-10.27.95,2.89,2.4,5.61,3.8,8.25,2.02,3.8,3.94,7.38,4.07,10.96.11,2.95-.92,5.86-3.13,8.9Z"/>
      <path class="cls-1" d="M1092.04,24.93c-.15-4.24-2.31-8.29-4.4-12.21-1.72-3.23-3.51-6.57-4.21-10.05l-.55-2.68-1.89,1.97c-3.39,3.53-7.14,7.84-9.22,13.06-2.49,6.25-.68,13.42,2.3,20.53-7.1.84-13.95,2.47-17.7,7.43h0c-2.77,3.67-4.2,8.1-5.23,11.96l-.71,2.64,2.57-.92c2.67-.95,5.71-1.12,8.65-1.28,3.62-.2,7.36-.4,10.42-2.1,2.62-1.46,4.58-3.81,5.99-7.19l.02-.04c.7-1.83.81-3.61.63-5.19,2.74-.37,6.78-1.56,9.61-5.21l.02-.03c2.62-3.59,3.83-7.09,3.7-10.71ZM1075.41,45.02c-1.15,2.75-2.7,4.64-4.73,5.77-2.48,1.38-5.73,1.56-9.18,1.74-2.28.12-4.62.25-6.9.73.9-2.92,2.13-5.98,4.05-8.54,3.24-4.28,9.74-5.65,16.45-6.39.76,1.79,1.26,4.2.31,6.69ZM1086.04,33.94c-2.16,2.78-5.25,3.79-7.74,4.11-3.59-7.7-6.4-15.62-3.87-21.96,1.56-3.9,4.21-7.32,6.87-10.27.95,2.89,2.4,5.61,3.8,8.25,2.02,3.8,3.94,7.38,4.07,10.96.11,2.95-.92,5.86-3.13,8.9Z"/>
      <path class="cls-1" d="M1122.93,24.93c-.15-4.24-2.31-8.29-4.4-12.21-1.72-3.23-3.51-6.57-4.21-10.05l-.55-2.68-1.89,1.97c-3.39,3.53-7.14,7.84-9.22,13.06-2.49,6.25-.68,13.42,2.3,20.53-7.1.84-13.95,2.47-17.7,7.43h0c-2.77,3.67-4.2,8.1-5.23,11.96l-.71,2.64,2.57-.92c2.67-.95,5.71-1.12,8.65-1.28,3.62-.2,7.36-.4,10.42-2.1,2.62-1.46,4.58-3.81,5.99-7.19l.02-.04c.7-1.83.81-3.61.63-5.19,2.74-.37,6.78-1.56,9.61-5.21l.02-.03c2.62-3.59,3.83-7.09,3.7-10.71ZM1106.3,45.02c-1.15,2.75-2.7,4.64-4.73,5.77-2.48,1.38-5.73,1.56-9.18,1.74-2.28.12-4.62.25-6.9.73.9-2.92,2.13-5.98,4.05-8.54,3.24-4.28,9.74-5.65,16.45-6.39.76,1.79,1.26,4.2.31,6.69ZM1116.93,33.94c-2.16,2.78-5.25,3.79-7.74,4.11-3.59-7.7-6.4-15.62-3.87-21.96,1.56-3.9,4.21-7.32,6.87-10.27.95,2.89,2.4,5.61,3.8,8.25,2.02,3.8,3.94,7.38,4.07,10.96.11,2.95-.92,5.86-3.13,8.9Z"/>
      <path class="cls-1" d="M1153.82,24.93c-.15-4.24-2.31-8.29-4.4-12.21-1.72-3.23-3.51-6.57-4.21-10.05l-.55-2.68-1.89,1.97c-3.39,3.53-7.14,7.84-9.22,13.06-2.49,6.25-.68,13.42,2.3,20.53-7.1.84-13.95,2.47-17.7,7.43h0c-2.77,3.67-4.2,8.1-5.23,11.96l-.71,2.64,2.57-.92c2.67-.95,5.71-1.12,8.65-1.28,3.62-.2,7.36-.4,10.42-2.1,2.62-1.46,4.58-3.81,5.99-7.19l.02-.04c.7-1.83.81-3.61.63-5.19,2.74-.37,6.78-1.56,9.61-5.21l.02-.03c2.62-3.59,3.83-7.09,3.7-10.71ZM1137.2,45.02c-1.15,2.75-2.7,4.64-4.73,5.77-2.48,1.38-5.73,1.56-9.18,1.74-2.28.12-4.62.25-6.9.73.9-2.92,2.13-5.98,4.05-8.54,3.24-4.28,9.74-5.65,16.45-6.39.76,1.79,1.26,4.2.31,6.69ZM1147.83,33.94c-2.16,2.78-5.25,3.79-7.74,4.11-3.59-7.7-6.4-15.62-3.87-21.96,1.56-3.9,4.21-7.32,6.87-10.27.95,2.89,2.4,5.61,3.8,8.25,2.02,3.8,3.94,7.38,4.07,10.96.11,2.95-.92,5.86-3.13,8.9Z"/>
      <path class="cls-1" d="M1184.72,24.93c-.15-4.24-2.31-8.29-4.4-12.21-1.72-3.23-3.51-6.57-4.21-10.05l-.55-2.68-1.89,1.97c-3.39,3.53-7.14,7.84-9.22,13.06-2.49,6.25-.68,13.42,2.3,20.53-7.1.84-13.95,2.47-17.7,7.43h0c-2.77,3.67-4.2,8.1-5.23,11.96l-.71,2.64,2.57-.92c2.67-.95,5.71-1.12,8.65-1.28,3.62-.2,7.36-.4,10.42-2.1,2.62-1.46,4.58-3.81,5.99-7.19l.02-.04c.7-1.83.81-3.61.63-5.19,2.74-.37,6.78-1.56,9.61-5.21l.02-.03c2.62-3.59,3.83-7.09,3.7-10.71ZM1168.09,45.02c-1.15,2.75-2.7,4.64-4.73,5.77-2.48,1.38-5.73,1.56-9.18,1.74-2.28.12-4.62.25-6.9.73.9-2.92,2.13-5.98,4.05-8.54,3.24-4.28,9.74-5.65,16.45-6.39.76,1.79,1.26,4.2.31,6.69ZM1178.72,33.94c-2.16,2.78-5.25,3.79-7.74,4.11-3.59-7.7-6.4-15.62-3.87-21.96,1.56-3.9,4.21-7.32,6.87-10.27.95,2.89,2.4,5.61,3.8,8.25,2.02,3.8,3.94,7.38,4.07,10.96.11,2.95-.92,5.86-3.13,8.9Z"/>
    </g>
  </g>
</svg>